{
copyright = "Uncopyrighted (public domain)";
customParameters = (
{
name = "license";
value = "Public domain.";
}
);
date = "2013-06-06 23:41:20 +0000";
designer = "Nathan Sharfi";
familyName = "Abbots Morton Experiment";
fontMaster = (
{
ascender = 1000;
capHeight = 1000;
descender = "-500";
guideLines = (
{
position = "{149, 550}";
},
{
position = "{25, -450}";
},
{
position = "{97, 950}";
},
{
position = "{69, -50}";
},
{
position = "{25, 900}";
},
{
position = "{26, -400}";
}
);
horizontalStems = (
50
);
id = "0D4C6578-C4F3-4653-B13A-F1323A6E6F4B";
userData = {
GSOffsetHorizontal = 50;
GSOffsetMakeStroke = 1;
GSOffsetVertical = 50;
};
verticalStems = (
50
);
xHeight = 500;
}
);
glyphs = (
{
glyphname = "ah-Qs";
lastChange = "2013-06-07 01:21:03 -0800";
layers = (
{
layerId = "0D4C6578-C4F3-4653-B13A-F1323A6E6F4B";
name = "Regular";
paths = (
{
closed = 0;
nodes = (
"0 0 LINE",
"125 0 OFFCURVE",
"250 -2 OFFCURVE",
"250 250 CURVE SMOOTH",
"250 498 OFFCURVE",
"375 500 OFFCURVE",
"500 500 CURVE"
);
}
);
width = 500;
}
);
unicode = E676;
},
{
glyphname = "at-Qs";
lastChange = "2013-06-07 21:46:39 -0800";
layers = (
{
layerId = "0D4C6578-C4F3-4653-B13A-F1323A6E6F4B";
name = "Regular";
paths = (
{
closed = 0;
nodes = (
"500 500 LINE",
"500 250 OFFCURVE",
"250 0 OFFCURVE",
"0 0 CURVE"
);
}
);
width = 500;
}
);
unicode = E674;
},
{
glyphname = "awe-Qs";
lastChange = "2013-06-07 00:56:45 -0800";
layers = (
{
layerId = "0D4C6578-C4F3-4653-B13A-F1323A6E6F4B";
name = "Regular";
paths = (
{
closed = 0;
nodes = (
"0 500 LINE",
"125 500 OFFCURVE",
"250 500 OFFCURVE",
"250 250 CURVE SMOOTH",
"250 0 OFFCURVE",
"375 0 OFFCURVE",
"500 0 CURVE"
);
}
);
width = 500;
}
);
unicode = E677;
},
{
glyphname = "bay-Qs";
lastChange = "2013-06-07 19:58:07 -0800";
layers = (
{
layerId = "0D4C6578-C4F3-4653-B13A-F1323A6E6F4B";
name = "Regular";
paths = (
{
closed = 0;
nodes = (
"521 0 LINE",
"204 0 LINE",
"130 0 OFFCURVE",
"91 -83 OFFCURVE",
"91 -165 CURVE SMOOTH",
"91 -243 OFFCURVE",
"127 -320 OFFCURVE",
"204 -320 CURVE SMOOTH",
"371 -320 OFFCURVE",
"380 -125 OFFCURVE",
"380 -49 CURVE SMOOTH",
"380 -31 OFFCURVE",
"380 -14 OFFCURVE",
"380 0 CURVE",
"380 550 LINE"
);
}
);
width = 600;
}
);
unicode = E651;
},
{
glyphname = "cheer-Qs";
lastChange = "2013-06-08 05:45:14 -0800";
layers = (
{
layerId = "0D4C6578-C4F3-4653-B13A-F1323A6E6F4B";
name = "Regular";
paths = (
{
closed = 0;
nodes = (
"100 500 LINE",
"391 753 LINE",
"95 0 OFFCURVE",
"523 0 OFFCURVE",
"631 0 CURVE"
);
}
);
width = 731;
}
);
unicode = E65E;
},
{
glyphname = "day-Qs";
lastChange = "2013-06-07 22:10:43 -0800";
layers = (
{
layerId = "0D4C6578-C4F3-4653-B13A-F1323A6E6F4B";
name = "Regular";
paths = (
{
closed = 0;
nodes = (
"100 503 LINE",
"100 -400 LINE",
"350 0 LINE"
);
}
);
width = 450;
}
);
unicode = E653;
},
{
glyphname = "eat-Qs";
lastChange = "2013-06-07 23:34:49 -0800";
layers = (
{
layerId = "0D4C6578-C4F3-4653-B13A-F1323A6E6F4B";
name = "Regular";
paths = (
{
closed = 0;
nodes = (
"100 -50 LINE",
"353 502 LINE",
"359 -49 LINE"
);
}
);
width = 459;
}
);
unicode = E671;
},
{
glyphname = "eight-Qs";
lastChange = "2013-06-07 21:50:10 -0800";
layers = (
{
layerId = "0D4C6578-C4F3-4653-B13A-F1323A6E6F4B";
name = "Regular";
paths = (
{
closed = 0;
nodes = (
"0 500 LINE",
"0 411 OFFCURVE",
"67 248 OFFCURVE",
"187 197 CURVE SMOOTH",
"288 154 OFFCURVE",
"431 216 OFFCURVE",
"493 265 CURVE SMOOTH",
"543 304 OFFCURVE",
"458 455 OFFCURVE",
"367 457 CURVE SMOOTH",
"262 459 OFFCURVE",
"148 299 OFFCURVE",
"187 197 CURVE SMOOTH",
"234 74 OFFCURVE",
"470 0 OFFCURVE",
"600 0 CURVE"
);
}
);
width = 600;
}
);
unicode = E673;
},
{
glyphname = "et-Qs";
lastChange = "2013-06-07 23:37:18 -0800";
layers = (
{
layerId = "0D4C6578-C4F3-4653-B13A-F1323A6E6F4B";
name = "Regular";
paths = (
{
closed = 0;
nodes = (
"100 500 LINE",
"100 250 OFFCURVE",
"350 0 OFFCURVE",
"600 0 CURVE"
);
}
);
width = 700;
}
);
unicode = E672;
},
{
glyphname = "exam-Qs";
lastChange = "2013-06-08 06:38:51 -0800";
layers = (
{
layerId = "0D4C6578-C4F3-4653-B13A-F1323A6E6F4B";
name = "Regular";
paths = (
{
closed = 0;
nodes = (
"500 -400 LINE",
"50 500 LINE"
);
},
{
closed = 0;
nodes = (
"50 0 LINE",
"300 500 LINE"
);
}
);
width = 550;
}
);
unicode = E66C;
},
{
glyphname = "excite-Qs";
lastChange = "2013-06-08 06:21:29 -0800";
layers = (
{
layerId = "0D4C6578-C4F3-4653-B13A-F1323A6E6F4B";
name = "Regular";
paths = (
{
closed = 0;
nodes = (
"50 900 LINE",
"500 0 LINE"
);
},
{
closed = 0;
nodes = (
"500 500 LINE",
"250 0 LINE"
);
}
);
width = 550;
}
);
unicode = E66B;
},
{
glyphname = "fee-Qs";
lastChange = "2013-06-08 03:57:37 -0800";
layers = (
{
layerId = "0D4C6578-C4F3-4653-B13A-F1323A6E6F4B";
name = "Regular";
paths = (
{
closed = 0;
nodes = (
"349 500 LINE",
"150 500 OFFCURVE",
"-25 0 OFFCURVE",
"280 0 CURVE SMOOTH",
"465 0 OFFCURVE",
"412 900 OFFCURVE",
"280 900 CURVE"
);
}
);
width = 504;
}
);
unicode = E658;
},
{
glyphname = "foot-Qs";
lastChange = "2013-06-08 04:49:25 -0800";
layers = (
{
layerId = "0D4C6578-C4F3-4653-B13A-F1323A6E6F4B";
name = "Regular";
paths = (
{
closed = 0;
nodes = (
"100 550 LINE",
"100 -182 OFFCURVE",
"455 -182 OFFCURVE",
"455 550 CURVE"
);
}
);
width = 555;
}
);
unicode = E67D;
},
{
glyphname = "gay-Qs";
lastChange = "2013-06-08 04:53:28 -0800";
layers = (
{
layerId = "0D4C6578-C4F3-4653-B13A-F1323A6E6F4B";
name = "Regular";
paths = (
{
closed = 0;
nodes = (
"400 501 LINE",
"346 501 OFFCURVE",
"150 501 OFFCURVE",
"150 296 CURVE SMOOTH",
"150 169 OFFCURVE",
"350 50 OFFCURVE",
"350 -166 CURVE SMOOTH",
"350 -220 OFFCURVE",
"281 -400 OFFCURVE",
"100 -400 CURVE",
"-79 -400 OFFCURVE",
"46 0 OFFCURVE",
"325 3 CURVE"
);
}
);
width = 600;
}
);
unicode = E655;
},
{
glyphname = "he-Qs";
lastChange = "2013-06-08 02:09:12 -0800";
layers = (
{
layerId = "0D4C6578-C4F3-4653-B13A-F1323A6E6F4B";
name = "Regular";
paths = (
{
closed = 0;
nodes = (
"577 900 LINE",
"365 948 OFFCURVE",
"283 900 OFFCURVE",
"283 786 CURVE",
"290 -50 LINE"
);
}
);
width = 600;
}
);
unicode = E662;
},
{
glyphname = "i-Qs";
lastChange = "2013-06-08 03:12:56 -0800";
layers = (
{
layerId = "0D4C6578-C4F3-4653-B13A-F1323A6E6F4B";
name = "Regular";
paths = (
{
closed = 0;
nodes = (
"600 500 LINE",
"600 411 OFFCURVE",
"533 248 OFFCURVE",
"413 197 CURVE SMOOTH",
"312 154 OFFCURVE",
"169 216 OFFCURVE",
"107 265 CURVE SMOOTH",
"57 304 OFFCURVE",
"142 455 OFFCURVE",
"233 457 CURVE SMOOTH",
"338 459 OFFCURVE",
"452 299 OFFCURVE",
"413 197 CURVE SMOOTH",
"366 74 OFFCURVE",
"130 0 OFFCURVE",
"0 0 CURVE"
);
}
);
width = 600;
}
);
unicode = E675;
},
{
glyphname = "it-Qs";
lastChange = "2013-06-07 22:07:24 -0800";
layers = (
{
layerId = "0D4C6578-C4F3-4653-B13A-F1323A6E6F4B";
name = "Regular";
paths = (
{
closed = 0;
nodes = (
"100 550 LINE",
"100 -50 LINE"
);
}
);
width = 200;
}
);
unicode = E670;
},
{
glyphname = "jay-Qs";
lastChange = "2013-06-08 05:46:10 -0800";
layers = (
{
layerId = "0D4C6578-C4F3-4653-B13A-F1323A6E6F4B";
name = "Regular";
paths = (
{
closed = 0;
nodes = (
"600 0 LINE",
"309 -253 LINE",
"605 500 OFFCURVE",
"177 500 OFFCURVE",
"69 500 CURVE"
);
}
);
width = 731;
}
);
unicode = E65F;
},
{
glyphname = "key-Qs";
lastChange = "2013-06-07 23:35:07 -0800";
layers = (
{
layerId = "0D4C6578-C4F3-4653-B13A-F1323A6E6F4B";
name = "Regular";
paths = (
{
closed = 0;
nodes = (
"100 905 LINE",
"163 773 OFFCURVE",
"287 641 OFFCURVE",
"288 509 CURVE",
"-71 237 OFFCURVE",
"210 0 OFFCURVE",
"410 0 CURVE SMOOTH"
);
}
);
width = 510;
}
);
unicode = E654;
},
{
glyphname = "low-Qs";
lastChange = "2013-06-08 02:02:03 -0800";
layers = (
{
layerId = "0D4C6578-C4F3-4653-B13A-F1323A6E6F4B";
name = "Regular";
paths = (
{
closed = 0;
nodes = (
"100 0 LINE",
"398 0 OFFCURVE",
"553 72 OFFCURVE",
"553 154 CURVE SMOOTH",
"553 217 OFFCURVE",
"434 296 OFFCURVE",
"185 296 CURVE",
"216 296 OFFCURVE",
"514 500 OFFCURVE",
"585 500 CURVE"
);
}
);
width = 685;
}
);
unicode = E667;
},
{
glyphname = "may-Qs";
lastChange = "2013-06-07 22:22:41 -0800";
layers = (
{
layerId = "0D4C6578-C4F3-4653-B13A-F1323A6E6F4B";
name = "Regular";
paths = (
{
closed = 0;
nodes = (
"483 500 LINE",
"294 500 OFFCURVE",
"192 125 OFFCURVE",
"192 2 CURVE SMOOTH",
"192 -354 OFFCURVE",
"300 -400 OFFCURVE",
"318 -400 CURVE SMOOTH",
"527 -400 OFFCURVE",
"574 -71 OFFCURVE",
"522 15 CURVE SMOOTH",
"468 103 OFFCURVE",
"365 81 OFFCURVE",
"257 26 CURVE SMOOTH"
);
}
);
width = 600;
}
);
unicode = E665;
},
{
glyphname = "no-Qs";
lastChange = "2013-06-08 02:00:11 -0800";
layers = (
{
layerId = "0D4C6578-C4F3-4653-B13A-F1323A6E6F4B";
name = "Regular";
paths = (
{
closed = 0;
nodes = (
"0 500 LINE",
"200 500 OFFCURVE",
"402 409 OFFCURVE",
"403 250 CURVE SMOOTH",
"405 -70 OFFCURVE",
"97 -70 OFFCURVE",
"97 250 CURVE SMOOTH",
"97 409 OFFCURVE",
"301 500 OFFCURVE",
"501 500 CURVE"
);
}
);
width = 500;
}
);
unicode = E666;
},
{
glyphname = "no-Qs.alt";
lastChange = "2013-06-08 03:23:00 -0800";
layers = (
{
layerId = "0D4C6578-C4F3-4653-B13A-F1323A6E6F4B";
name = "Regular";
paths = (
{
closed = 0;
nodes = (
"0 0 LINE",
"200 0 OFFCURVE",
"402 91 OFFCURVE",
"403 250 CURVE SMOOTH",
"405 570 OFFCURVE",
"97 570 OFFCURVE",
"97 250 CURVE SMOOTH",
"97 91 OFFCURVE",
"301 0 OFFCURVE",
"501 0 CURVE"
);
}
);
width = 500;
}
);
},
{
glyphname = "oolong-Qs";
lastChange = "2013-06-08 04:28:56 -0800";
layers = (
{
layerId = "0D4C6578-C4F3-4653-B13A-F1323A6E6F4B";
name = "Regular";
paths = (
{
closed = 0;
nodes = (
"0 0 LINE",
"200 0 OFFCURVE",
"402 500 OFFCURVE",
"403 659 CURVE SMOOTH",
"405 979 OFFCURVE",
"97 979 OFFCURVE",
"97 659 CURVE SMOOTH",
"97 500 OFFCURVE",
"301 0 OFFCURVE",
"501 0 CURVE"
);
}
);
width = 500;
}
);
unicode = E664;
},
{
glyphname = "ooze-Qs";
lastChange = "2013-06-08 04:43:35 -0800";
layers = (
{
layerId = "0D4C6578-C4F3-4653-B13A-F1323A6E6F4B";
name = "Regular";
paths = (
{
closed = 0;
nodes = (
"100 -50 LINE",
"100 682 OFFCURVE",
"455 682 OFFCURVE",
"455 -50 CURVE"
);
}
);
width = 555;
}
);
unicode = E67E;
},
{
glyphname = "out-Qs";
lastChange = "2013-06-08 06:07:56 -0800";
layers = (
{
layerId = "0D4C6578-C4F3-4653-B13A-F1323A6E6F4B";
name = "Regular";
paths = (
{
closed = 0;
nodes = (
"100 0 LINE",
"211 198 OFFCURVE",
"418 464 OFFCURVE",
"471 480 CURVE SMOOTH",
"523 496 OFFCURVE",
"578 489 OFFCURVE",
"610 443 CURVE SMOOTH",
"642 396 OFFCURVE",
"630 333 OFFCURVE",
"586 303 CURVE SMOOTH",
"540 271 OFFCURVE",
"478 283 OFFCURVE",
"446 330 CURVE SMOOTH",
"414 376 OFFCURVE",
"435 460 OFFCURVE",
"471 470 CURVE SMOOTH",
"547 492 OFFCURVE",
"624 500 OFFCURVE",
"700 500 CURVE"
);
}
);
width = 800;
}
);
unicode = E67B;
},
{
glyphname = "owe-Qs";
lastChange = "2013-06-08 04:58:27 -0800";
layers = (
{
layerId = "0D4C6578-C4F3-4653-B13A-F1323A6E6F4B";
name = "Regular";
paths = (
{
closed = 0;
nodes = (
"351 500 LINE",
"212 500 OFFCURVE",
"100 388 OFFCURVE",
"100 250 CURVE SMOOTH",
"100 111 OFFCURVE",
"212 0 OFFCURVE",
"351 0 CURVE SMOOTH",
"489 0 OFFCURVE",
"601 111 OFFCURVE",
"601 250 CURVE SMOOTH",
"601 388 OFFCURVE",
"489 500 OFFCURVE",
"351 500 CURVE"
);
}
);
width = 701;
}
);
unicode = E67C;
},
{
glyphname = "ox-Qs";
lastChange = "2013-06-08 03:31:34 -0800";
layers = (
{
layerId = "0D4C6578-C4F3-4653-B13A-F1323A6E6F4B";
name = "Regular";
paths = (
{
closed = 0;
nodes = (
"500 -50 LINE",
"500 200 OFFCURVE",
"250 500 OFFCURVE",
"0 500 CURVE SMOOTH"
);
}
);
width = 500;
}
);
unicode = E678;
},
{
glyphname = "oy-Qs";
lastChange = "2013-06-08 06:10:55 -0800";
layers = (
{
layerId = "0D4C6578-C4F3-4653-B13A-F1323A6E6F4B";
name = "Regular";
paths = (
{
closed = 0;
nodes = (
"700 0 LINE",
"589 198 OFFCURVE",
"382 464 OFFCURVE",
"329 480 CURVE SMOOTH",
"277 496 OFFCURVE",
"222 489 OFFCURVE",
"190 443 CURVE SMOOTH",
"158 396 OFFCURVE",
"170 333 OFFCURVE",
"214 303 CURVE SMOOTH",
"260 271 OFFCURVE",
"322 283 OFFCURVE",
"354 330 CURVE SMOOTH",
"386 376 OFFCURVE",
"365 460 OFFCURVE",
"329 470 CURVE SMOOTH",
"253 492 OFFCURVE",
"176 500 OFFCURVE",
"100 500 CURVE"
);
}
);
width = 800;
}
);
unicode = E679;
},
{
glyphname = "pea-Qs";
lastChange = "2013-06-08 02:35:23 -0800";
layers = (
{
layerId = "0D4C6578-C4F3-4653-B13A-F1323A6E6F4B";
name = "Regular";
paths = (
{
closed = 0;
nodes = (
"327 -50 LINE",
"320 711 LINE",
"320 983 OFFCURVE",
"50 983 OFFCURVE",
"50 550 CURVE SMOOTH"
);
}
);
width = 427;
}
);
unicode = E650;
},
{
glyphname = "roe-Qs";
lastChange = "2013-06-07 20:55:42 -0800";
layers = (
{
layerId = "0D4C6578-C4F3-4653-B13A-F1323A6E6F4B";
name = "Regular";
paths = (
{
closed = 0;
nodes = (
"100 500 LINE",
"250 500 OFFCURVE",
"425 465 OFFCURVE",
"425 265 CURVE SMOOTH",
"425 65 OFFCURVE",
"250 0 OFFCURVE",
"100 0 CURVE SMOOTH"
);
}
);
width = 525;
}
);
unicode = E668;
},
{
glyphname = "see-Qs";
lastChange = "2013-06-07 22:13:34 -0800";
layers = (
{
layerId = "0D4C6578-C4F3-4653-B13A-F1323A6E6F4B";
name = "Regular";
paths = (
{
closed = 0;
nodes = (
"100 0 LINE",
"281 0 OFFCURVE",
"350 180 OFFCURVE",
"350 234 CURVE SMOOTH",
"350 450 OFFCURVE",
"150 569 OFFCURVE",
"150 696 CURVE SMOOTH",
"150 901 OFFCURVE",
"346 901 OFFCURVE",
"400 901 CURVE"
);
}
);
width = 500;
}
);
unicode = E65A;
},
{
glyphname = "she-Qs";
lastChange = "2013-06-08 04:40:22 -0800";
layers = (
{
layerId = "0D4C6578-C4F3-4653-B13A-F1323A6E6F4B";
name = "Regular";
paths = (
{
closed = 0;
nodes = (
"320 900 LINE",
"296 848 OFFCURVE",
"-42 24 OFFCURVE",
"146 -19 CURVE SMOOTH",
"243 -41 OFFCURVE",
"356 -18 OFFCURVE",
"458 0 CURVE SMOOTH"
);
}
);
width = 600;
}
);
unicode = E65C;
},
{
glyphname = "tea-Qs";
lastChange = "2013-06-07 22:12:53 -0800";
layers = (
{
layerId = "0D4C6578-C4F3-4653-B13A-F1323A6E6F4B";
name = "Regular";
paths = (
{
closed = 0;
nodes = (
"100 900 LINE",
"100 -50 LINE"
);
}
);
width = 200;
}
);
unicode = E652;
},
{
glyphname = "thaw-Qs";
lastChange = "2013-06-08 04:40:22 -0800";
layers = (
{
layerId = "0D4C6578-C4F3-4653-B13A-F1323A6E6F4B";
name = "Regular";
paths = (
{
closed = 0;
nodes = (
"180 0 LINE",
"204 52 OFFCURVE",
"542 876 OFFCURVE",
"354 919 CURVE SMOOTH",
"257 941 OFFCURVE",
"144 918 OFFCURVE",
"42 900 CURVE SMOOTH"
);
}
);
width = 600;
}
);
unicode = E656;
},
{
glyphname = "they-Qs";
lastChange = "2013-06-08 04:32:59 -0800";
layers = (
{
layerId = "0D4C6578-C4F3-4653-B13A-F1323A6E6F4B";
name = "Regular";
paths = (
{
closed = 0;
nodes = (
"320 500 LINE",
"296 448 OFFCURVE",
"-42 -376 OFFCURVE",
"146 -419 CURVE SMOOTH",
"243 -441 OFFCURVE",
"356 -418 OFFCURVE",
"458 -400 CURVE SMOOTH"
);
}
);
width = 600;
}
);
unicode = E657;
},
{
glyphname = "utter-Qs";
lastChange = "2013-06-08 03:31:02 -0800";
layers = (
{
layerId = "0D4C6578-C4F3-4653-B13A-F1323A6E6F4B";
name = "Regular";
paths = (
{
closed = 0;
nodes = (
"0 -50 LINE",
"0 200 OFFCURVE",
"250 500 OFFCURVE",
"500 500 CURVE SMOOTH"
);
}
);
width = 500;
}
);
unicode = E67A;
},
{
glyphname = "vie-Qs";
lastChange = "2013-06-08 03:36:34 -0800";
layers = (
{
layerId = "0D4C6578-C4F3-4653-B13A-F1323A6E6F4B";
name = "Regular";
paths = (
{
closed = 0;
nodes = (
"151 0 LINE",
"350 0 OFFCURVE",
"525 500 OFFCURVE",
"220 500 CURVE SMOOTH",
"35 500 OFFCURVE",
"88 -400 OFFCURVE",
"220 -400 CURVE SMOOTH",
"405 -400 OFFCURVE",
"404 -151 OFFCURVE",
"404 0 CURVE"
);
}
);
width = 504;
}
);
unicode = E659;
},
{
glyphname = "way-Qs";
lastChange = "2013-06-08 01:37:14 -0800";
layers = (
{
layerId = "0D4C6578-C4F3-4653-B13A-F1323A6E6F4B";
name = "Regular";
paths = (
{
closed = 0;
nodes = (
"500 500 LINE",
"100 -400 LINE"
);
}
);
width = 600;
}
);
unicode = E661;
},
{
glyphname = "why-Qs";
lastChange = "2013-06-08 06:18:00 -0800";
layers = (
{
layerId = "0D4C6578-C4F3-4653-B13A-F1323A6E6F4B";
name = "Regular";
paths = (
{
closed = 0;
nodes = (
"500 500 LINE",
"100 -400 LINE",
"29 -109 LINE"
);
}
);
width = 600;
}
);
unicode = E663;
},
{
glyphname = "ye-Qs";
lastChange = "2013-06-08 05:03:24 -0800";
layers = (
{
layerId = "0D4C6578-C4F3-4653-B13A-F1323A6E6F4B";
name = "Regular";
paths = (
{
closed = 0;
nodes = (
"100 500 LINE",
"402 500 OFFCURVE",
"496 593 OFFCURVE",
"496 689 CURVE SMOOTH",
"496 790 OFFCURVE",
"392 894 OFFCURVE",
"319 894 CURVE SMOOTH",
"273 894 OFFCURVE",
"249 855 OFFCURVE",
"249 786 CURVE SMOOTH",
"256 -50 LINE"
);
}
);
width = 596;
}
);
unicode = E660;
},
{
glyphname = "zhivago-Qs";
lastChange = "2013-06-08 06:15:13 -0800";
layers = (
{
layerId = "0D4C6578-C4F3-4653-B13A-F1323A6E6F4B";
name = "Regular";
paths = (
{
closed = 0;
nodes = (
"599 0 LINE",
"252 0 OFFCURVE",
"110 -234 OFFCURVE",
"110 -344 CURVE SMOOTH",
"110 -377 OFFCURVE",
"123 -399 OFFCURVE",
"148 -399 CURVE SMOOTH",
"168 -399 OFFCURVE",
"195 -386 OFFCURVE",
"228 -353 CURVE SMOOTH",
"252 -330 OFFCURVE",
"279 -297 OFFCURVE",
"309 -253 CURVE SMOOTH",
"433 -70 OFFCURVE",
"480 69 OFFCURVE",
"480 175 CURVE SMOOTH",
"480 457 OFFCURVE",
"148 500 OFFCURVE",
"69 500 CURVE"
);
}
);
width = 600;
}
);
unicode = E65D;
},
{
glyphname = "zoo-Qs";
lastChange = "2013-06-07 22:40:17 -0800";
layers = (
{
layerId = "0D4C6578-C4F3-4653-B13A-F1323A6E6F4B";
name = "Regular";
paths = (
{
closed = 0;
nodes = (
"158 500 LINE",
"198 526 OFFCURVE",
"444 550 OFFCURVE",
"444 384 CURVE SMOOTH",
"444 270 OFFCURVE",
"218 102 OFFCURVE",
"165 -98 CURVE SMOOTH",
"123 -258 OFFCURVE",
"196 -400 OFFCURVE",
"324 -400 CURVE SMOOTH",
"479 -400 OFFCURVE",
"481 -129 OFFCURVE",
"481 0 CURVE SMOOTH"
);
}
);
width = 600;
}
);
unicode = E65B;
},
{
glyphname = "leftangledparenthesis-Qs";
lastChange = "2013-06-07 19:13:07 -0800";
layers = (
{
layerId = "0D4C6578-C4F3-4653-B13A-F1323A6E6F4B";
name = "Regular";
paths = (
{
closed = 0;
nodes = (
"550 950 LINE",
"100 -450 LINE",
"550 -450 LINE"
);
}
);
width = 600;
}
);
unicode = E66E;
},
{
glyphname = "rightangledparenthesis-Qs";
lastChange = "2013-06-07 19:17:05 -0800";
layers = (
{
layerId = "0D4C6578-C4F3-4653-B13A-F1323A6E6F4B";
name = "Regular";
paths = (
{
closed = 0;
nodes = (
"50 -450 LINE",
"500 950 LINE",
"50 950 LINE"
);
}
);
width = 600;
}
);
unicode = E66F;
},
